Coordinates
version=1
nRows=49
nColumns=12
inDegrees=yes

Units are S.I. units (second, meters, Newtons, ...)
Angles are in degrees

endheader
time	SC_y	SC_z	SC_x	AC_y	AC_z	AC_x	GH_y	GH_z	GH_yy	EL_x	PS_y
       0.0              -54.76          4.886          71.55          39.04         -18.67         -11.94          150.7           83.1          36.73           34.7          123.3
   0.01764              -54.75          4.891          71.54          39.04         -18.67         -11.94          150.7          83.09           36.7           34.7          123.3
   0.03529              -54.75          4.895          71.53          39.05         -18.67         -11.93          150.6          83.08          36.67           34.7          123.3
   0.05293              -54.75            4.9          71.52          39.05         -18.67         -11.93          150.6          83.08          36.64           34.7          123.3
   0.07057              -54.74          4.906          71.51          39.05         -18.67         -11.92          150.6          83.07           36.6           34.7          123.3
   0.08821              -54.74          4.911           71.5          39.05         -18.66         -11.92          150.6          83.06          36.56           34.7          123.3
    0.1059              -54.74          4.918          71.49          39.06         -18.66         -11.91          150.5          83.06          36.52           34.7          123.3
    0.1235              -54.73          4.924          71.48          39.06         -18.66          -11.9          150.5          83.05          36.48           34.7          123.3
    0.1411              -54.73          4.931          71.47          39.06         -18.65          -11.9          150.4          83.04          36.43           34.7          123.3
    0.1588              -54.73          4.939          71.46          39.07         -18.65         -11.89          150.4          83.03          36.38          34.71          123.3
    0.1764              -54.72          4.947          71.45          39.07         -18.65         -11.88          150.4          83.02          36.33          34.71          123.3
    0.1941              -54.72          4.955          71.43          39.08         -18.64         -11.87          150.3          83.01          36.27          34.71          123.3
    0.2117              -54.71          4.965          71.42          39.08         -18.64         -11.86          150.3           83.0          36.21          34.71          123.3
    0.2294               -54.7          4.975           71.4          39.09         -18.64         -11.85          150.2          82.99          36.14          34.71          123.3
     0.247               -54.7          4.986          71.38          39.09         -18.63         -11.84          150.2          82.97          36.06          34.72          123.3
    0.2646              -54.69          4.998          71.36           39.1         -18.63         -11.83          150.1          82.96          35.98          34.72          123.3
    0.2823              -54.68          5.011          71.34           39.1         -18.62         -11.81          150.0          82.94           35.9          34.72          123.3
    0.2999              -54.68          5.025          71.32          39.11         -18.61          -11.8          150.0          82.92           35.8          34.72          123.3
    0.3176              -54.67           5.04          71.29          39.12         -18.61         -11.78          149.9           82.9           35.7          34.73          123.3
    0.3352              -54.66          5.057          71.27          39.13          -18.6         -11.77          149.8          82.88          35.59          34.73          123.3
    0.3529              -54.65          5.075          71.24          39.14         -18.59         -11.75          149.7          82.86          35.46          34.73          123.3
    0.3705              -54.63          5.096           71.2          39.15         -18.58         -11.73          149.6          82.84          35.33          34.74          123.3
    0.3881              -54.62          5.118          71.17          39.16         -18.57          -11.7          149.5          82.81          35.18          34.74          123.3
    0.4058              -54.61          5.143          71.13          39.17         -18.56         -11.68          149.4          82.78          35.01          34.75          123.3
    0.4234              -54.59          5.171          71.08          39.18         -18.55         -11.65          149.2          82.74          34.82          34.76          123.3
    0.4411              -54.57          5.201          71.03           39.2         -18.54         -11.62          149.1           82.7          34.62          34.76          123.3
    0.4587              -54.55          5.236          70.98          39.22         -18.52         -11.58          148.9          82.66          34.38          34.77          123.3
    0.4764              -54.53          5.275          70.91          39.24         -18.51         -11.54          148.7          82.61          34.12          34.78          123.3
     0.494              -54.51          5.319          70.84          39.26         -18.49          -11.5          148.4          82.56          33.83          34.79          123.3
    0.5116              -54.48          5.369          70.76          39.28         -18.47         -11.45          148.2           82.5          33.49           34.8          123.3
    0.5293              -54.44          5.426          70.67          39.31         -18.44         -11.39          147.9          82.43          33.11          34.81          123.3
    0.5469              -54.41          5.491          70.56          39.35         -18.41         -11.32          147.6          82.35          32.67          34.82          123.4
    0.5646              -54.36          5.566          70.44          39.38         -18.38         -11.24          147.2          82.25          32.16          34.84          123.4
    0.5822              -54.31          5.654          70.29          39.43         -18.34         -11.15          146.7          82.14          31.58          34.86          123.4
    0.5998              -54.25          5.757          70.13          39.48          -18.3         -11.05          146.2          82.02          30.89          34.88          123.4
    0.6175              -54.18          5.877          69.93          39.54         -18.25         -10.92          145.6          81.87          30.08           34.9          123.4
    0.6351               -54.1          6.021          69.69          39.61         -18.18         -10.78          144.8          81.69          29.11          34.93          123.4
    0.6528               -54.0          6.193          69.41           39.7         -18.11          -10.6          143.9          81.47          27.95          34.97          123.4
    0.6704              -53.88          6.402          69.07           39.8         -18.02         -10.39          142.9          81.22          26.55          35.01          123.4
    0.6881              -53.73          6.656          68.66          39.93         -17.91         -10.13          141.6           80.9          24.85          35.07          123.4
    0.7057              -53.55           6.97          68.15          40.09         -17.78         -9.803          139.9          80.51          22.74          35.13          123.4
    0.7233              -53.32          7.362          67.51          40.28         -17.61         -9.401          137.9          80.03          20.11          35.22          123.4
     0.741              -53.04          7.855           66.7          40.53         -17.39         -8.895          135.4          79.41          16.79          35.32          123.4
    0.7586              -52.68          8.482          65.68          40.85         -17.12         -8.252          132.1          78.64          12.58          35.45          123.4
    0.7763              -52.21          9.285          64.37          41.25         -16.78         -7.428          128.0          77.64          7.186          35.62          123.5
    0.7939              -51.62          10.32          62.69          41.77         -16.33         -6.371          122.7          76.36         0.2665          35.84          123.5
    0.8116              -50.85          11.63          60.54          42.43         -15.76          -5.02          115.9          74.73         -8.572          36.11          123.6
    0.8292               -49.9          13.29          57.85          43.26         -15.05         -3.322          107.3          72.68         -19.69          36.46          123.6
    0.8468              -48.73           15.3          54.56          44.27         -14.18         -1.253          96.95          70.18         -33.23          36.89          123.7
